<?xml version="1.0" standalone="no"?>
<!DOCTYPE svg PUBLIC "-//W3C//DTD SVG 20010904//EN"
 "http://www.w3.org/TR/2001/REC-SVG-20010904/DTD/svg10.dtd">
<svg version="1.0" xmlns="http://www.w3.org/2000/svg"
 width="82.000000pt" height="82.000000pt" viewBox="0 0 82.000000 82.000000"
 preserveAspectRatio="xMidYMid meet">
<metadata>
Created by potrace 1.11, written by Peter Selinger 2001-2013
</metadata>
<g transform="translate(0.000000,82.000000) scale(0.100000,-0.100000)"
fill="#000000" stroke="none">
<path d="M635 775 c-93 -46 -136 -98 -229 -278 -36 -70 -85 -155 -108 -190
l-42 -62 -8 54 c-10 66 -78 384 -84 390 -7 7 -120 -31 -141 -47 l-20 -17 33
-145 c18 -80 36 -161 39 -180 3 -19 7 -42 10 -50 2 -8 6 -33 10 -55 9 -67 17
-109 22 -128 4 -16 70 -57 92 -57 18 0 171 160 221 232 29 40 74 118 102 173
96 191 147 252 253 304 l39 19 -31 31 c-39 39 -87 41 -158 6z"/>
</g>
</svg>
